<?xml version="1.0" encoding="iso-8859-1"?>
<!-- Generator: Adobe Illustrator 19.0.0, SVG Export Plug-In . SVG Version: 6.00 Build 0)  -->
<svg version="1.1" id="Capa_1" xmlns="http://www.w3.org/2000/svg" xmlns:xlink="http://www.w3.org/1999/xlink" x="0px" y="0px"
	 viewBox="0 0 480 480" style="enable-background:new 0 0 480 480;" xml:space="preserve">
<g>
	<g>
		<path d="M155.56,152.172c-17.234,11.464-27.581,30.798-27.56,51.496v11.16h16v-11.16c-0.017-15.349,7.658-29.686,20.44-38.184
			L155.56,152.172z"/>
	</g>
</g>
<g>
	<g>
		<path d="M466.344,33.172L328,171.516l-20.688-20.688L445.656,12.484L434.344,1.172L291.68,143.836l-94.208,31.4
			c-4.192,1.396-6.458,5.926-5.062,10.118c0.393,1.18,1.055,2.251,1.934,3.13l96,96c3.127,3.121,8.192,3.117,11.314-0.01
			c0.875-0.876,1.534-1.944,1.926-3.118l31.408-94.2L477.656,44.484L466.344,33.172z M292.496,264.036l-18.2-18.208l28.36-42.544
			l-13.312-8.88l-26.592,39.888l-18.192-18.224l39.88-26.584l-8.88-13.312l-42.536,28.36l-18.208-18.208l79.016-26.344
			l25.008,25.008L292.496,264.036z"/>
	</g>
</g>
<g>
	<g>
		<path d="M474.192,287.14l-77.6-22.176c-9.623-2.711-19.832-2.516-29.344,0.56c11.006-25.341,16.707-52.668,16.752-80.296
			c0-3.889-0.3-7.773-0.896-11.616l-15.816,2.48c0.479,3.022,0.717,6.077,0.712,9.136c-0.035,28.758-6.73,57.118-19.56,82.856
			l-11.6,23.2c-0.419,0.846-0.69,1.758-0.8,2.696l-13.744,123.704c-0.888,8.108-8.181,13.96-16.289,13.071
			c-6.673-0.731-12.013-5.871-12.999-12.511L275.48,301.372c-2.951-19.595-21.228-33.088-40.823-30.137
			c-15.57,2.345-27.793,14.567-30.137,30.137l-17.528,116.872c-1.198,8.068-8.709,13.637-16.777,12.439
			c-6.64-0.986-11.78-6.326-12.511-12.999l-13.752-123.736c-0.111-0.938-0.381-1.85-0.8-2.696l-11.6-23.2
			c-12.822-25.729-19.514-54.077-19.552-82.824c0.006-32.253,26.157-58.395,58.41-58.39c7.895,0.001,15.707,1.604,22.966,4.71
			c29.785,12.704,63.463,12.704,93.248,0l-6.296-14.704c-25.765,10.976-54.891,10.976-80.656,0
			c-37.776-16.167-81.505,1.352-97.672,39.128c-3.957,9.246-5.998,19.199-6,29.256c0.057,27.632,5.774,54.959,16.8,80.296
			c-9.515-3.076-19.727-3.271-29.352-0.56l-77.6,22.176c-3.451,0.964-5.84,4.105-5.848,7.688v176c0,4.418,3.582,8,8,8h464
			c4.418,0,8-3.582,8-8v-176C479.997,291.256,477.627,288.119,474.192,287.14z M464,462.828H16V300.86l71.8-20.512
			c15.813-4.497,32.627,2.603,40.432,17.072l13.6,122.032c1.875,16.893,17.09,29.068,33.983,27.193
			c13.872-1.54,24.971-12.222,27.041-26.025l17.528-116.872c1.613-10.851,11.718-18.34,22.569-16.727
			c8.649,1.286,15.44,8.077,16.727,16.727l17.528,116.872c2.52,16.809,18.19,28.393,34.999,25.873
			c13.803-2.069,24.485-13.169,26.025-27.041l13.6-122.032c7.807-14.467,24.619-21.565,40.432-17.072L464,300.86V462.828z"/>
	</g>
</g>
<g>
	<g>
		<path d="M410.456,235.628c3.671-16.549,5.53-33.449,5.544-50.4c0.037-15.866-3.519-31.535-10.4-45.832l-14.4,6.912
			c5.829,12.144,8.838,25.449,8.8,38.92c-0.016,18.24-2.322,36.406-6.864,54.072c-0.526,2.052-0.213,4.229,0.872,6.048
			c1.085,1.828,2.852,3.149,4.912,3.672l75.36,21.496l4.392-15.376L410.456,235.628z"/>
	</g>
</g>
<g>
	<g>
		<path d="M267.704,87.42c-17.708,7.552-37.732,7.552-55.44,0c-54.023-23.121-116.561,1.931-139.682,55.954
			c-5.661,13.228-8.581,27.466-8.582,41.854c0.011,16.965,1.87,33.878,5.544,50.44L1.328,255.14l4.392,15.376l73.288-20.936
			l2.072-0.56c4.283-1.085,6.875-5.437,5.79-9.72c-0.002-0.008-0.004-0.016-0.006-0.024c-4.54-17.658-6.846-35.816-6.864-54.048
			c0.04-49.91,40.49-90.36,90.4-90.4c12.243-0.012,24.36,2.476,35.608,7.312c21.721,9.26,46.279,9.26,68,0
			c14.221-6.083,29.762-8.427,45.144-6.808l1.664-15.912C302.72,77.526,284.44,80.28,267.704,87.42z"/>
	</g>
</g>
<g>
	<g>
		<path d="M103.866,69.494c-0.568-3.357-3.197-5.986-6.554-6.554c-13.036-2.178-23.25-12.395-25.424-25.432
			c-0.737-4.356-4.866-7.291-9.222-6.554c-3.357,0.568-5.986,3.197-6.554,6.554C53.938,50.545,43.724,60.762,30.688,62.94
			c-4.356,0.737-7.291,4.866-6.554,9.222c0.568,3.357,3.197,5.986,6.554,6.554c13.036,2.178,23.25,12.395,25.424,25.432
			c0.737,4.356,4.866,7.291,9.222,6.554c3.357-0.568,5.986-3.197,6.554-6.554c2.174-13.037,12.388-23.254,25.424-25.432
			C101.668,77.979,104.603,73.85,103.866,69.494z M64,82.252c-3.119-4.439-6.985-8.305-11.424-11.424
			c4.439-3.119,8.305-6.985,11.424-11.424c3.119,4.439,6.985,8.305,11.424,11.424C70.985,73.947,67.119,77.813,64,82.252z"/>
	</g>
</g>
<g>
</g>
<g>
</g>
<g>
</g>
<g>
</g>
<g>
</g>
<g>
</g>
<g>
</g>
<g>
</g>
<g>
</g>
<g>
</g>
<g>
</g>
<g>
</g>
<g>
</g>
<g>
</g>
<g>
</g>
</svg>
