<?xml version="1.0" encoding="iso-8859-1"?>
<!-- Generator: Adobe Illustrator 19.0.0, SVG Export Plug-In . SVG Version: 6.00 Build 0)  -->
<svg version="1.1" id="Capa_1" xmlns="http://www.w3.org/2000/svg" xmlns:xlink="http://www.w3.org/1999/xlink" x="0px" y="0px"
	 viewBox="0 0 479.998 479.998" style="enable-background:new 0 0 479.998 479.998;" xml:space="preserve">
<g>
	<g>
		<path d="M431.999,55.998h-28.8c-57.318-0.094-112.987-19.195-158.288-54.312c-2.889-2.247-6.935-2.247-9.824,0
			c-45.301,35.117-100.97,54.218-158.288,54.312h-28.8c-4.418,0-8,3.582-8,8v85.6C39.9,287.113,115.229,413.604,236.183,479.03
			c2.38,1.292,5.252,1.292,7.632,0c120.942-65.419,196.268-191.891,196.184-329.392v-85.64
			C439.999,59.579,436.417,55.998,431.999,55.998z M423.999,149.598c0.091,130.085-70.34,249.998-184,313.272
			c-113.648-63.267-184.077-183.161-184-313.232v-77.64h20.8c58.765-0.098,115.956-19.005,163.2-53.952
			c47.244,34.947,104.435,53.854,163.2,53.952h20.8V149.598z"/>
	</g>
</g>
<g>
	<g>
		<path d="M309.56,80.037c-10.049,0.005-19.993,2.047-29.232,6c-25.763,10.984-54.892,10.984-80.656,0
			c-37.776-16.166-81.505,1.352-97.672,39.128c-3.954,9.239-5.995,19.183-6,29.232c0.027,20.723,4.851,41.158,14.096,59.704
			l18.248,36.496l20.224,107.8c3.189,17.019,19.57,28.231,36.59,25.042c13.409-2.512,23.654-13.408,25.338-26.946l10.464-83.696
			c1.366-10.516,10.998-17.933,21.514-16.566c8.642,1.123,15.444,7.925,16.566,16.566l10.464,83.72
			c2.137,17.183,17.799,29.38,34.982,27.242c13.538-1.684,24.434-11.929,26.946-25.338l20.224-107.856l18.248-36.496
			c9.24-18.537,14.065-38.96,14.096-59.672C383.977,113.308,350.65,80.015,309.56,80.037z M355.591,206.918v0.024l-18.752,37.504
			c-0.329,0.662-0.564,1.368-0.696,2.096l-20.432,108.96c-1.555,8.335-9.573,13.831-17.907,12.276
			c-6.577-1.227-11.601-6.572-12.421-13.212l-10.472-83.744c-2.482-19.281-20.124-32.9-39.406-30.418
			c-15.876,2.043-28.375,14.542-30.418,30.418l-10.472,83.72c-1.038,8.415-8.702,14.395-17.116,13.357
			c-6.64-0.819-11.984-5.844-13.212-12.421l-20.432-108.96c-0.132-0.728-0.367-1.434-0.696-2.096l-18.752-37.504
			c-8.135-16.314-12.382-34.29-12.408-52.52c0.006-32.253,26.157-58.395,58.41-58.39c7.895,0.001,15.707,1.604,22.966,4.71
			c29.785,12.704,63.463,12.704,93.248,0c29.652-12.689,63.977,1.062,76.666,30.714c3.106,7.258,4.708,15.071,4.71,22.966
			C367.973,172.627,363.726,190.604,355.591,206.918z"/>
	</g>
</g>
<g>
	<g>
		<path d="M155.559,113.342c-17.236,11.462-27.583,30.797-27.56,51.496v11.16h16v-11.16c-0.017-15.349,7.658-29.686,20.44-38.184
			L155.559,113.342z"/>
	</g>
</g>
<g>
	<g>
		<rect x="231.999" y="55.998" width="16" height="16"/>
	</g>
</g>
<g>
	<g>
		<rect x="391.999" y="87.998" width="16" height="16"/>
	</g>
</g>
<g>
	<g>
		<rect x="71.999" y="87.998" width="16" height="16"/>
	</g>
</g>
<g>
	<g>
		<rect x="359.999" y="295.998" width="16" height="16"/>
	</g>
</g>
<g>
	<g>
		<rect x="79.999" y="199.998" width="16" height="16"/>
	</g>
</g>
<g>
	<g>
		<rect x="231.999" y="415.998" width="16" height="16"/>
	</g>
</g>
<g>
	<g>
		<rect x="383.999" y="199.998" width="16" height="16"/>
	</g>
</g>
<g>
	<g>
		<rect x="103.999" y="295.998" width="16" height="16"/>
	</g>
</g>
<g>
</g>
<g>
</g>
<g>
</g>
<g>
</g>
<g>
</g>
<g>
</g>
<g>
</g>
<g>
</g>
<g>
</g>
<g>
</g>
<g>
</g>
<g>
</g>
<g>
</g>
<g>
</g>
<g>
</g>
</svg>
